<svg width="195" height="26" viewBox="0 0 195 26" fill="none" xmlns="http://www.w3.org/2000/svg">
<path d="M13.7695 16.3369C13.7695 16.695 13.623 16.9798 13.3301 17.1914C13.1348 17.3216 12.9395 17.3867 12.7441 17.3867C12.6139 17.3867 12.4837 17.3542 12.3535 17.2891L2.17285 13.3584C1.7985 13.2282 1.4974 13.0003 1.26953 12.6748C1.05794 12.3493 0.952148 11.9912 0.952148 11.6006C0.952148 11.21 1.05794 10.8519 1.26953 10.5264C1.4974 10.2008 1.7985 9.97298 2.17285 9.84277L12.3535 5.8877C12.5 5.83887 12.6302 5.81445 12.7441 5.81445C12.9557 5.81445 13.151 5.87956 13.3301 6.00977C13.623 6.22135 13.7695 6.50618 13.7695 6.86426C13.7695 7.31999 13.6393 7.73503 13.3789 8.10938C13.1185 8.46745 12.7767 8.71973 12.3535 8.86621L8.52051 10.1846L4.76074 11.5029C4.72819 11.5192 4.71191 11.5518 4.71191 11.6006C4.71191 11.6331 4.72819 11.6576 4.76074 11.6738L8.52051 12.9922L12.3291 14.3105C12.7686 14.457 13.1185 14.7174 13.3789 15.0918C13.6393 15.4661 13.7695 15.8812 13.7695 16.3369ZM16.3086 25.5898C15.9831 25.5898 15.7308 25.4678 15.5518 25.2236C15.4053 25.0446 15.332 24.8493 15.332 24.6377C15.332 24.5563 15.3483 24.4749 15.3809 24.3936L20.9717 2.10352C21.0531 1.74544 21.2321 1.46061 21.5088 1.24902C21.8018 1.02116 22.1273 0.907227 22.4854 0.907227C22.8109 0.907227 23.0632 1.0293 23.2422 1.27344C23.3887 1.45247 23.4619 1.64779 23.4619 1.85938C23.4619 1.94076 23.4456 2.02214 23.4131 2.10352L17.8223 24.3936C17.7409 24.7516 17.5537 25.0365 17.2607 25.248C16.984 25.4759 16.6667 25.5898 16.3086 25.5898ZM26.7822 17.2891C26.652 17.3542 26.5218 17.3867 26.3916 17.3867C26.1963 17.3867 26.0091 17.3216 25.8301 17.1914C25.5208 16.9798 25.3662 16.695 25.3662 16.3369C25.3662 15.8812 25.4964 15.4661 25.7568 15.0918C26.0335 14.7174 26.3835 14.457 26.8066 14.3105L30.6396 12.9922L34.3994 11.6738C34.4482 11.6576 34.4727 11.6331 34.4727 11.6006C34.4727 11.5518 34.4482 11.5192 34.3994 11.5029L30.6396 10.1846L26.8066 8.86621C26.3672 8.71973 26.0173 8.46745 25.7568 8.10938C25.4964 7.73503 25.3662 7.31999 25.3662 6.86426C25.3662 6.50618 25.5127 6.22135 25.8057 6.00977C26.001 5.87956 26.1963 5.81445 26.3916 5.81445C26.5218 5.81445 26.652 5.83887 26.7822 5.8877L36.9873 9.84277C37.3454 9.97298 37.6302 10.2008 37.8418 10.5264C38.0697 10.8519 38.1836 11.21 38.1836 11.6006C38.1836 11.9912 38.0697 12.3493 37.8418 12.6748C37.6302 13.0003 37.3454 13.2282 36.9873 13.3584L26.7822 17.2891ZM56.4697 8.18262C56.4697 8.63835 56.307 9.02083 55.9814 9.33008C55.6722 9.6556 55.2897 9.81836 54.834 9.81836H45.0684C44.7591 9.83464 44.4987 9.90788 44.2871 10.0381C44.0918 10.152 43.9453 10.2904 43.8477 10.4531C43.75 10.5996 43.7012 10.7542 43.7012 10.917C43.7012 11.0798 43.75 11.2425 43.8477 11.4053C43.9453 11.5518 44.0918 11.6901 44.2871 11.8203C44.4987 11.9342 44.7591 11.9993 45.0684 12.0156H52.002C53.1413 12.0482 54.0771 12.3167 54.8096 12.8213C55.5583 13.3096 56.0872 13.8792 56.3965 14.5303C56.722 15.165 56.8848 15.8161 56.8848 16.4834C56.8848 17.1344 56.722 17.7855 56.3965 18.4365C56.071 19.0713 55.542 19.641 54.8096 20.1455C54.0771 20.6338 53.1413 20.8779 52.002 20.8779H51.8555C51.7578 20.8942 51.6602 20.9023 51.5625 20.9023H42.334C41.8783 20.9023 41.4876 20.7477 41.1621 20.4385C40.8529 20.113 40.6982 19.7223 40.6982 19.2666C40.6982 18.8109 40.861 18.4284 41.1865 18.1191C41.4958 17.7936 41.8783 17.6309 42.334 17.6309H52.1484C52.4577 17.6471 52.71 17.5902 52.9053 17.46C53.1169 17.3298 53.2715 17.1833 53.3691 17.0205C53.4668 16.8415 53.5156 16.6624 53.5156 16.4834C53.5156 16.3695 53.4668 16.2148 53.3691 16.0195C53.2715 15.8079 53.1169 15.637 52.9053 15.5068C52.71 15.3766 52.4577 15.3034 52.1484 15.2871H45.2148C44.0755 15.2546 43.1315 14.9941 42.3828 14.5059C41.6504 14.0176 41.1214 13.4642 40.7959 12.8457C40.4867 12.2109 40.332 11.568 40.332 10.917C40.332 10.2822 40.4948 9.6556 40.8203 9.03711C41.1458 8.40234 41.6748 7.84082 42.4072 7.35254C43.1396 6.86426 44.0755 6.60384 45.2148 6.57129H45.3613C45.459 6.55501 45.5566 6.54688 45.6543 6.54688H54.834C55.2897 6.54688 55.6722 6.70964 55.9814 7.03516C56.307 7.3444 56.4697 7.72689 56.4697 8.18262ZM64.6729 20.9512C63.2406 20.9023 62.1582 20.5687 61.4258 19.9502C60.6934 19.3154 60.1644 18.6074 59.8389 17.8262C59.5133 17.0286 59.3506 16.223 59.3506 15.4092C59.3506 14.5628 59.5052 13.749 59.8145 12.9678C60.14 12.1702 60.6689 11.4622 61.4014 10.8438C62.1501 10.209 63.0941 9.88346 64.2334 9.86719H72.1436C73.2829 9.88346 74.2188 10.209 74.9512 10.8438C75.6999 11.4622 76.2288 12.1702 76.5381 12.9678C76.8636 13.749 77.0264 14.5628 77.0264 15.4092C77.0264 16.223 76.8636 17.0286 76.5381 17.8262C76.2126 18.6074 75.6836 19.3154 74.9512 19.9502C74.2188 20.5687 73.1364 20.9023 71.7041 20.9512H64.6729ZM64.1357 13.1387C63.8265 13.1387 63.5579 13.2689 63.3301 13.5293C63.1022 13.7734 62.9313 14.0664 62.8174 14.4082C62.7197 14.7337 62.6709 15.0592 62.6709 15.3848C62.6709 15.7266 62.7197 16.0684 62.8174 16.4102C62.9313 16.7357 63.1022 17.0286 63.3301 17.2891C63.5579 17.5332 63.8265 17.6634 64.1357 17.6797H72.2412C72.5505 17.6634 72.819 17.5332 73.0469 17.2891C73.2747 17.0286 73.4375 16.7357 73.5352 16.4102C73.6491 16.0684 73.7061 15.7266 73.7061 15.3848C73.7061 15.0592 73.6491 14.7337 73.5352 14.4082C73.4375 14.0664 73.2747 13.7734 73.0469 13.5293C72.819 13.2689 72.5505 13.1387 72.2412 13.1387H64.1357ZM85.4248 21.2441C84.9854 21.2279 84.611 21.0732 84.3018 20.7803C83.9925 20.471 83.8298 20.0967 83.8135 19.6572V16.3613H81.0059C80.5501 16.3613 80.1595 16.2067 79.834 15.8975C79.5247 15.5719 79.3701 15.1813 79.3701 14.7256C79.3701 14.2699 79.5329 13.8874 79.8584 13.5781C80.1676 13.2526 80.5501 13.0898 81.0059 13.0898H83.8135C83.8623 12.1296 84.0251 11.2018 84.3018 10.3066C84.6273 9.28125 85.1562 8.41862 85.8887 7.71875C86.6374 7.0026 87.5814 6.61198 88.7207 6.54688H95.5078C95.9473 6.56315 96.3135 6.72591 96.6064 7.03516C96.9157 7.32812 97.0785 7.69434 97.0947 8.13379C97.0947 8.58952 96.9401 8.98014 96.6309 9.30566C96.3379 9.63118 95.9635 9.80208 95.5078 9.81836H89.5508C88.9323 9.85091 88.4196 10.0869 88.0127 10.5264C87.6058 10.9658 87.3535 11.4622 87.2559 12.0156C87.1745 12.3737 87.1257 12.7318 87.1094 13.0898H95.4102C95.8659 13.0898 96.2484 13.2526 96.5576 13.5781C96.8831 13.8874 97.0459 14.2699 97.0459 14.7256C97.0459 15.1813 96.8913 15.5719 96.582 15.8975C96.2565 16.2067 95.8659 16.3613 95.4102 16.3613H87.1094V19.6572C87.0931 20.113 86.9222 20.4954 86.5967 20.8047C86.2712 21.0977 85.8805 21.2441 85.4248 21.2441ZM104.932 6.15625C105.387 6.15625 105.778 6.31087 106.104 6.62012C106.429 6.91309 106.6 7.28743 106.616 7.74316V9.86719H114.917C115.373 9.86719 115.763 10.0218 116.089 10.3311C116.398 10.6566 116.553 11.0472 116.553 11.5029C116.553 11.9587 116.39 12.3493 116.064 12.6748C115.755 12.984 115.373 13.1387 114.917 13.1387H106.616V13.627C106.6 14.2943 106.641 14.9128 106.738 15.4824C106.852 16.0358 107.113 16.5322 107.52 16.9717C107.926 17.4111 108.439 17.6471 109.058 17.6797H115.015C115.47 17.696 115.845 17.8669 116.138 18.1924C116.447 18.5179 116.602 18.9085 116.602 19.3643C116.585 19.8037 116.423 20.1781 116.113 20.4873C115.82 20.7803 115.454 20.9349 115.015 20.9512H108.228C107.088 20.8861 106.144 20.5036 105.396 19.8037C104.663 19.0876 104.134 18.2168 103.809 17.1914C103.499 16.166 103.337 15.0755 103.32 13.9199V13.1387H100.513C100.057 13.1387 99.6745 12.9759 99.3652 12.6504C99.0397 12.3411 98.877 11.9587 98.877 11.5029C98.877 11.0472 99.0316 10.6647 99.3408 10.3555C99.6663 10.0299 100.057 9.86719 100.513 9.86719H103.32V7.74316C103.337 7.30371 103.499 6.9375 103.809 6.64453C104.118 6.33529 104.492 6.17253 104.932 6.15625ZM123.901 20.9512C122.469 20.9023 121.387 20.5687 120.654 19.9502C119.922 19.3154 119.393 18.6074 119.067 17.8262C118.742 17.0286 118.579 16.223 118.579 15.4092C118.579 14.5628 118.734 13.749 119.043 12.9678C119.368 12.1702 119.897 11.4622 120.63 10.8438C121.379 10.209 122.323 9.88346 123.462 9.86719H132.739C133.195 9.86719 133.577 10.0299 133.887 10.3555C134.212 10.6647 134.375 11.0472 134.375 11.5029C134.375 11.9587 134.212 12.3493 133.887 12.6748C133.577 12.984 133.195 13.1387 132.739 13.1387H123.364C123.055 13.1387 122.786 13.2689 122.559 13.5293C122.331 13.7734 122.16 14.0664 122.046 14.4082C121.948 14.7337 121.899 15.0592 121.899 15.3848C121.899 15.7266 121.948 16.0684 122.046 16.4102C122.16 16.7357 122.331 17.0286 122.559 17.2891C122.786 17.5332 123.055 17.6634 123.364 17.6797H132.739C133.195 17.6797 133.577 17.8424 133.887 18.168C134.212 18.4772 134.375 18.8597 134.375 19.3154C134.375 19.7712 134.212 20.1536 133.887 20.4629C133.577 20.7884 133.195 20.9512 132.739 20.9512H123.901ZM141.992 20.9512C140.56 20.9023 139.478 20.5687 138.745 19.9502C138.013 19.3154 137.484 18.6074 137.158 17.8262C136.833 17.0286 136.67 16.223 136.67 15.4092C136.67 14.5628 136.825 13.749 137.134 12.9678C137.459 12.1702 137.988 11.4622 138.721 10.8438C139.469 10.209 140.413 9.88346 141.553 9.86719H149.463C150.602 9.88346 151.538 10.209 152.271 10.8438C153.019 11.4622 153.548 12.1702 153.857 12.9678C154.183 13.749 154.346 14.5628 154.346 15.4092C154.346 16.223 154.183 17.0286 153.857 17.8262C153.532 18.6074 153.003 19.3154 152.271 19.9502C151.538 20.5687 150.456 20.9023 149.023 20.9512H141.992ZM141.455 13.1387C141.146 13.1387 140.877 13.2689 140.649 13.5293C140.422 13.7734 140.251 14.0664 140.137 14.4082C140.039 14.7337 139.99 15.0592 139.99 15.3848C139.99 15.7266 140.039 16.0684 140.137 16.4102C140.251 16.7357 140.422 17.0286 140.649 17.2891C140.877 17.5332 141.146 17.6634 141.455 17.6797H149.561C149.87 17.6634 150.138 17.5332 150.366 17.2891C150.594 17.0286 150.757 16.7357 150.854 16.4102C150.968 16.0684 151.025 15.7266 151.025 15.3848C151.025 15.0592 150.968 14.7337 150.854 14.4082C150.757 14.0664 150.594 13.7734 150.366 13.5293C150.138 13.2689 149.87 13.1387 149.561 13.1387H141.455ZM170.752 7.74316C170.85 6.7666 171.387 6.23763 172.363 6.15625C172.819 6.15625 173.21 6.31087 173.535 6.62012C173.877 6.91309 174.048 7.28743 174.048 7.74316V19.3643C174.032 19.82 173.861 20.2025 173.535 20.5117C173.21 20.8047 172.819 20.9512 172.363 20.9512H162.109C160.677 20.9023 159.595 20.5687 158.862 19.9502C158.13 19.3154 157.601 18.6074 157.275 17.8262C156.95 17.0286 156.787 16.223 156.787 15.4092C156.787 14.5628 156.942 13.749 157.251 12.9678C157.576 12.1702 158.105 11.4622 158.838 10.8438C159.587 10.209 160.531 9.88346 161.67 9.86719H167.822C168.278 9.86719 168.66 10.0299 168.97 10.3555C169.295 10.6647 169.458 11.0472 169.458 11.5029C169.458 11.9587 169.295 12.3493 168.97 12.6748C168.66 12.984 168.278 13.1387 167.822 13.1387H161.572C161.263 13.1387 160.994 13.2689 160.767 13.5293C160.539 13.7734 160.368 14.0664 160.254 14.4082C160.156 14.7337 160.107 15.0592 160.107 15.3848C160.107 15.7266 160.156 16.0684 160.254 16.4102C160.368 16.7357 160.539 17.0286 160.767 17.2891C160.994 17.5332 161.263 17.6634 161.572 17.6797H170.117C170.54 17.6634 170.752 17.4518 170.752 17.0449V7.74316ZM182.275 20.9512C180.843 20.9023 179.761 20.5687 179.028 19.9502C178.296 19.3154 177.767 18.6074 177.441 17.8262C177.116 17.0286 176.953 16.223 176.953 15.4092C176.953 14.5628 177.108 13.749 177.417 12.9678C177.743 12.1702 178.271 11.4622 179.004 10.8438C179.753 10.209 180.697 9.88346 181.836 9.86719H191.113C191.569 9.86719 191.951 10.0218 192.261 10.3311C192.586 10.624 192.749 10.9821 192.749 11.4053C192.749 11.8447 192.586 12.2191 192.261 12.5283C191.951 12.8213 191.569 12.9678 191.113 12.9678H181.982C181.624 12.9678 181.307 13.0898 181.03 13.334C180.77 13.5781 180.575 13.8955 180.444 14.2861C180.33 14.6768 180.273 15.0592 180.273 15.4336C180.273 15.8405 180.33 16.2393 180.444 16.6299C180.575 17.0205 180.77 17.3379 181.03 17.582C181.307 17.8099 181.624 17.932 181.982 17.9482H191.113C191.569 17.9482 191.951 18.0947 192.261 18.3877C192.586 18.6807 192.749 19.0306 192.749 19.4375C192.749 19.8607 192.586 20.2188 192.261 20.5117C191.951 20.8047 191.569 20.9512 191.113 20.9512H182.275ZM192.456 15.3604C192.456 15.6696 192.318 15.9382 192.041 16.166C191.797 16.3776 191.488 16.4834 191.113 16.4834H183.13C182.756 16.4834 182.438 16.3776 182.178 16.166C181.917 15.9382 181.787 15.6696 181.787 15.3604C181.787 15.0674 181.917 14.807 182.178 14.5791C182.438 14.3675 182.756 14.2617 183.13 14.2617H191.113C191.488 14.2617 191.805 14.3757 192.065 14.6035C192.326 14.8151 192.456 15.0674 192.456 15.3604Z" fill="#0f172a"/>
</svg>
